<?xml version="1.0" standalone="no"?>
<!DOCTYPE svg PUBLIC "-//W3C//DTD SVG 20010904//EN"
 "http://www.w3.org/TR/2001/REC-SVG-20010904/DTD/svg10.dtd">
<svg version="1.0" xmlns="http://www.w3.org/2000/svg"
 width="608.000000pt" height="608.000000pt" viewBox="0 0 608.000000 608.000000"
 preserveAspectRatio="xMidYMid meet">
<metadata>
Created by potrace 1.14, written by Peter Selinger 2001-2017
</metadata>
<g transform="translate(0.000000,608.000000) scale(0.100000,-0.100000)"
fill="#000000" stroke="none">
<path d="M4107 6053 c-30 -5 -52 -27 -674 -660 -198 -202 -432 -441 -520 -529
-143 -146 -726 -739 -1186 -1208 -98 -99 -249 -253 -336 -341 -137 -140 -203
-215 -187 -215 3 0 -2 -19 -10 -42 -17 -46 -80 -225 -149 -428 -53 -153 -107
-310 -220 -635 -48 -137 -99 -288 -115 -335 -16 -47 -57 -164 -90 -260 -34
-96 -87 -251 -120 -345 -32 -93 -79 -231 -105 -305 -26 -74 -55 -160 -65 -190
-10 -30 -33 -95 -50 -145 -17 -49 -33 -95 -34 -102 -1 -7 -5 -15 -8 -18 -9
-10 13 -96 31 -117 22 -27 61 -45 92 -43 14 1 79 19 145 39 65 21 169 54 229
73 61 19 121 38 135 43 14 5 93 30 175 55 83 26 182 57 220 69 125 41 340 110
345 111 3 1 16 5 30 9 14 4 90 28 170 53 80 24 177 55 215 68 39 13 86 28 105
33 19 5 123 38 230 72 107 34 200 63 205 64 6 1 15 4 20 8 6 3 44 16 85 28 41
12 111 34 155 48 44 14 82 27 85 27 76 17 99 34 245 181 142 143 727 738 1142
1161 103 106 364 371 579 590 216 219 460 468 544 553 83 85 213 218 289 295
76 77 144 151 151 164 27 52 13 112 -73 326 -95 236 -177 400 -301 598 -33 54
-65 107 -71 118 -5 10 -13 19 -17 19 -5 0 -8 4 -8 10 0 5 -6 18 -14 27 -8 10
-46 60 -84 111 -173 230 -422 486 -607 625 -5 4 -26 21 -45 37 -19 16 -38 30
-42 30 -4 0 -13 6 -20 13 -43 43 -381 250 -423 259 -11 3 -32 3 -48 1z m188
-381 c191 -121 388 -283 554 -456 70 -73 65 -68 131 -146 30 -36 58 -67 61
-70 3 -3 25 -32 50 -65 24 -33 47 -62 50 -65 3 -3 38 -52 76 -110 116 -173
219 -363 309 -567 36 -83 44 -102 63 -157 l22 -59 -68 -67 c-37 -37 -231 -234
-430 -436 -398 -406 -561 -572 -1163 -1184 -223 -227 -471 -479 -551 -561
l-146 -150 -35 43 c-20 24 -45 54 -57 68 -11 14 -24 30 -28 35 -8 9 -108 131
-136 165 -77 93 -117 144 -117 150 0 4 66 74 146 156 274 279 1018 1036 1325
1348 526 533 539 547 548 580 11 43 4 96 -17 126 -20 26 -70 57 -89 54 -7 -1
-23 -2 -35 -3 -14 -1 -91 -71 -222 -205 -231 -233 -957 -971 -1261 -1281 -590
-601 -566 -578 -584 -553 -8 13 -25 34 -37 48 -94 109 -314 384 -312 391 2 5
168 176 369 381 202 205 440 447 529 538 313 319 956 973 1021 1039 36 36 73
77 82 91 36 55 25 141 -23 185 -15 13 -36 19 -74 19 l-53 1 -144 -146 c-79
-80 -338 -344 -575 -585 -238 -241 -553 -563 -702 -714 -149 -151 -344 -350
-435 -443 l-164 -167 -29 32 c-16 18 -58 69 -94 113 -35 44 -78 96 -94 116
-17 20 -38 45 -46 55 -8 11 -36 45 -62 76 -27 31 -48 60 -48 65 0 5 100 111
222 235 329 335 902 918 1151 1171 120 122 372 379 560 571 188 192 360 366
382 387 l39 38 36 -21 c19 -12 67 -41 105 -66z m-2527 -2683 c78 -96 148 -181
155 -189 7 -8 50 -62 97 -120 47 -58 88 -107 91 -110 5 -5 128 -154 156 -190
16 -21 179 -219 206 -251 12 -14 58 -70 102 -125 44 -54 82 -101 85 -104 3 -3
97 -117 209 -254 l203 -248 -68 -71 c-117 -120 -113 -118 -276 -170 -331 -105
-534 -169 -551 -172 -9 -2 -22 -7 -27 -10 -5 -3 -18 -8 -27 -10 -15 -3 -179
-53 -233 -71 -8 -3 -17 -5 -20 -6 -3 0 -21 -6 -40 -13 -19 -7 -109 -37 -200
-65 -91 -28 -220 -69 -287 -91 -67 -21 -126 -39 -131 -39 -5 0 -30 44 -56 98
-81 166 -159 254 -331 375 -18 13 -24 24 -20 35 8 19 175 501 179 517 2 6 6
17 9 25 3 8 13 35 21 60 8 25 40 117 71 205 31 88 58 167 60 175 3 8 13 40 24
70 49 139 205 591 221 640 10 30 24 69 32 85 15 36 178 205 193 201 6 -1 74
-81 153 -177z m-998 -2117 c27 -22 61 -54 77 -73 15 -19 36 -43 45 -53 10 -11
18 -25 18 -32 0 -7 4 -14 9 -16 4 -2 17 -24 29 -50 l20 -47 -146 -46 c-81 -25
-173 -55 -204 -65 -32 -10 -58 -17 -58 -16 0 4 67 199 94 276 13 36 31 86 41
113 9 26 19 47 22 47 3 0 27 -17 53 -38z"/>
</g>
</svg>
